<mxfile host="app.diagrams.net" modified="2023-12-19T04:44:02.039Z" agent="Mozilla/5.0 (Windows NT 10.0; Win64; x64) AppleWebKit/537.36 (KHTML, like Gecko) Chrome/120.0.0.0 Safari/537.36" etag="7mUlGCQYkrPi9LkWiZ1-" version="22.1.11" type="github">
  <diagram name="Halaman-1" id="UdCtWcI9B7K36Gje9cQb">
    <mxGraphModel dx="880" dy="468" grid="1" gridSize="10" guides="1" tooltips="1" connect="1" arrows="1" fold="1" page="1" pageScale="1" pageWidth="827" pageHeight="1169" math="0" shadow="0">
      <root>
        <mxCell id="0" />
        <mxCell id="1" parent="0" />
        <mxCell id="JshPII_n94KWn3LP_m4g-3" value="" style="edgeStyle=orthogonalEdgeStyle;rounded=0;orthogonalLoop=1;jettySize=auto;html=1;" edge="1" parent="1" source="JshPII_n94KWn3LP_m4g-1" target="JshPII_n94KWn3LP_m4g-2">
          <mxGeometry relative="1" as="geometry" />
        </mxCell>
        <mxCell id="JshPII_n94KWn3LP_m4g-1" value="START" style="strokeWidth=2;html=1;shape=mxgraph.flowchart.terminator;whiteSpace=wrap;" vertex="1" parent="1">
          <mxGeometry x="90" y="50" width="100" height="60" as="geometry" />
        </mxCell>
        <mxCell id="JshPII_n94KWn3LP_m4g-5" value="ya" style="edgeStyle=orthogonalEdgeStyle;rounded=0;orthogonalLoop=1;jettySize=auto;html=1;" edge="1" parent="1" source="JshPII_n94KWn3LP_m4g-2" target="JshPII_n94KWn3LP_m4g-4">
          <mxGeometry relative="1" as="geometry" />
        </mxCell>
        <mxCell id="JshPII_n94KWn3LP_m4g-9" value="tidak" style="edgeStyle=orthogonalEdgeStyle;rounded=0;orthogonalLoop=1;jettySize=auto;html=1;" edge="1" parent="1" source="JshPII_n94KWn3LP_m4g-2" target="JshPII_n94KWn3LP_m4g-8">
          <mxGeometry relative="1" as="geometry" />
        </mxCell>
        <mxCell id="JshPII_n94KWn3LP_m4g-2" value="Member?" style="rhombus;whiteSpace=wrap;html=1;strokeWidth=2;" vertex="1" parent="1">
          <mxGeometry x="90" y="170" width="100" height="60" as="geometry" />
        </mxCell>
        <mxCell id="JshPII_n94KWn3LP_m4g-7" value="ya" style="edgeStyle=orthogonalEdgeStyle;rounded=0;orthogonalLoop=1;jettySize=auto;html=1;" edge="1" parent="1" source="JshPII_n94KWn3LP_m4g-4" target="JshPII_n94KWn3LP_m4g-6">
          <mxGeometry relative="1" as="geometry" />
        </mxCell>
        <mxCell id="JshPII_n94KWn3LP_m4g-11" value="tidak" style="edgeStyle=orthogonalEdgeStyle;rounded=0;orthogonalLoop=1;jettySize=auto;html=1;" edge="1" parent="1" source="JshPII_n94KWn3LP_m4g-4" target="JshPII_n94KWn3LP_m4g-10">
          <mxGeometry relative="1" as="geometry" />
        </mxCell>
        <mxCell id="JshPII_n94KWn3LP_m4g-4" value="Belanja &amp;gt; 500rb" style="rhombus;whiteSpace=wrap;html=1;strokeWidth=2;" vertex="1" parent="1">
          <mxGeometry x="260" y="160" width="120" height="80" as="geometry" />
        </mxCell>
        <mxCell id="JshPII_n94KWn3LP_m4g-19" style="edgeStyle=orthogonalEdgeStyle;rounded=0;orthogonalLoop=1;jettySize=auto;html=1;exitX=1;exitY=0.5;exitDx=0;exitDy=0;" edge="1" parent="1" source="JshPII_n94KWn3LP_m4g-6">
          <mxGeometry relative="1" as="geometry">
            <mxPoint x="190" y="600" as="targetPoint" />
            <Array as="points">
              <mxPoint x="640" y="200" />
              <mxPoint x="640" y="600" />
            </Array>
          </mxGeometry>
        </mxCell>
        <mxCell id="JshPII_n94KWn3LP_m4g-6" value="Diskon 50rb" style="shape=parallelogram;perimeter=parallelogramPerimeter;whiteSpace=wrap;html=1;fixedSize=1;strokeWidth=2;" vertex="1" parent="1">
          <mxGeometry x="460" y="170" width="120" height="60" as="geometry" />
        </mxCell>
        <mxCell id="JshPII_n94KWn3LP_m4g-15" value="" style="edgeStyle=orthogonalEdgeStyle;rounded=0;orthogonalLoop=1;jettySize=auto;html=1;" edge="1" parent="1" source="JshPII_n94KWn3LP_m4g-8" target="JshPII_n94KWn3LP_m4g-14">
          <mxGeometry relative="1" as="geometry" />
        </mxCell>
        <mxCell id="JshPII_n94KWn3LP_m4g-17" value="" style="edgeStyle=orthogonalEdgeStyle;rounded=0;orthogonalLoop=1;jettySize=auto;html=1;" edge="1" parent="1" source="JshPII_n94KWn3LP_m4g-8" target="JshPII_n94KWn3LP_m4g-16">
          <mxGeometry relative="1" as="geometry" />
        </mxCell>
        <mxCell id="JshPII_n94KWn3LP_m4g-8" value="Belanja &amp;gt; 100rb" style="rhombus;whiteSpace=wrap;html=1;strokeWidth=2;" vertex="1" parent="1">
          <mxGeometry x="80" y="440" width="120" height="80" as="geometry" />
        </mxCell>
        <mxCell id="JshPII_n94KWn3LP_m4g-13" value="ya" style="edgeStyle=orthogonalEdgeStyle;rounded=0;orthogonalLoop=1;jettySize=auto;html=1;" edge="1" parent="1" source="JshPII_n94KWn3LP_m4g-10" target="JshPII_n94KWn3LP_m4g-12">
          <mxGeometry relative="1" as="geometry" />
        </mxCell>
        <mxCell id="JshPII_n94KWn3LP_m4g-21" style="edgeStyle=orthogonalEdgeStyle;rounded=0;orthogonalLoop=1;jettySize=auto;html=1;exitX=0.5;exitY=1;exitDx=0;exitDy=0;" edge="1" parent="1" source="JshPII_n94KWn3LP_m4g-10">
          <mxGeometry relative="1" as="geometry">
            <mxPoint x="640" y="420" as="targetPoint" />
            <Array as="points">
              <mxPoint x="320" y="420" />
            </Array>
          </mxGeometry>
        </mxCell>
        <mxCell id="JshPII_n94KWn3LP_m4g-10" value="Belanja &amp;gt; 100rb" style="rhombus;whiteSpace=wrap;html=1;strokeWidth=2;" vertex="1" parent="1">
          <mxGeometry x="260" y="320" width="120" height="80" as="geometry" />
        </mxCell>
        <mxCell id="JshPII_n94KWn3LP_m4g-20" style="edgeStyle=orthogonalEdgeStyle;rounded=0;orthogonalLoop=1;jettySize=auto;html=1;exitX=1;exitY=0.5;exitDx=0;exitDy=0;" edge="1" parent="1" source="JshPII_n94KWn3LP_m4g-12">
          <mxGeometry relative="1" as="geometry">
            <mxPoint x="640" y="360" as="targetPoint" />
          </mxGeometry>
        </mxCell>
        <mxCell id="JshPII_n94KWn3LP_m4g-12" value="Diskon 15rb&lt;br&gt;" style="shape=parallelogram;perimeter=parallelogramPerimeter;whiteSpace=wrap;html=1;fixedSize=1;strokeWidth=2;" vertex="1" parent="1">
          <mxGeometry x="460" y="330" width="120" height="60" as="geometry" />
        </mxCell>
        <mxCell id="JshPII_n94KWn3LP_m4g-14" value="Diskon 10rb" style="shape=parallelogram;perimeter=parallelogramPerimeter;whiteSpace=wrap;html=1;fixedSize=1;strokeWidth=2;" vertex="1" parent="1">
          <mxGeometry x="260" y="450" width="120" height="60" as="geometry" />
        </mxCell>
        <mxCell id="JshPII_n94KWn3LP_m4g-16" value="END" style="strokeWidth=2;html=1;shape=mxgraph.flowchart.terminator;whiteSpace=wrap;" vertex="1" parent="1">
          <mxGeometry x="90" y="570" width="100" height="60" as="geometry" />
        </mxCell>
        <mxCell id="JshPII_n94KWn3LP_m4g-18" style="edgeStyle=orthogonalEdgeStyle;rounded=0;orthogonalLoop=1;jettySize=auto;html=1;exitX=0.5;exitY=1;exitDx=0;exitDy=0;entryX=1;entryY=0.5;entryDx=0;entryDy=0;entryPerimeter=0;" edge="1" parent="1" source="JshPII_n94KWn3LP_m4g-14" target="JshPII_n94KWn3LP_m4g-16">
          <mxGeometry relative="1" as="geometry" />
        </mxCell>
      </root>
    </mxGraphModel>
  </diagram>
</mxfile>
